<?xml version="1.0" standalone="no"?>
<!DOCTYPE svg PUBLIC "-//W3C//DTD SVG 20010904//EN"
 "http://www.w3.org/TR/2001/REC-SVG-20010904/DTD/svg10.dtd">
<svg version="1.0" xmlns="http://www.w3.org/2000/svg"
 width="512.000000pt" height="512.000000pt" viewBox="0 0 512.000000 512.000000"
 preserveAspectRatio="xMidYMid meet">
<metadata>
Created by potrace 1.14, written by Peter Selinger 2001-2017
</metadata>
<g transform="translate(0.000000,512.000000) scale(0.100000,-0.100000)"
fill="#000000" stroke="none">
<path d="M2287 3963 c-61 -42 -182 -126 -269 -187 -172 -121 -354 -248 -487
-340 -47 -33 -88 -62 -91 -65 -3 -4 -36 -27 -75 -53 -38 -26 -90 -62 -115 -79
-25 -18 -198 -138 -385 -269 -187 -130 -362 -252 -389 -271 -101 -71 -136 -95
-191 -133 -59 -41 -75 -65 -69 -103 3 -17 422 -631 476 -698 5 -5 44 -62 88
-125 43 -63 83 -120 88 -126 18 -20 34 -57 52 -118 88 -297 92 -307 146 -308
16 0 83 16 149 36 132 41 234 71 370 112 203 60 487 145 645 193 52 16 129 39
170 51 41 12 86 25 100 29 14 5 41 13 60 19 33 9 118 35 340 102 52 16 187 56
300 90 363 108 399 120 415 143 8 12 15 29 15 38 0 8 -31 119 -69 245 -38 126
-68 230 -67 230 0 1 24 4 51 7 54 6 138 32 163 50 61 46 133 132 153 184 27
72 34 181 14 247 -22 73 -91 191 -144 245 -114 117 -290 150 -435 80 -22 -10
-40 -18 -41 -16 -2 1 -16 45 -31 97 -40 129 -48 134 -180 96 l-99 -27 -18 23
c-10 13 -23 30 -30 38 -7 9 -30 43 -52 75 -36 55 -146 211 -181 260 -8 11 -50
72 -94 135 -44 63 -85 123 -92 133 -12 16 -35 28 -66 33 -8 1 -64 -32 -125
-73z"/>
<path d="M4155 3906 c-163 -40 -282 -183 -290 -348 -4 -98 12 -211 40 -275 43
-96 137 -177 243 -209 49 -15 139 -19 182 -8 14 3 37 8 52 11 15 3 33 11 39
19 6 8 18 14 25 14 24 0 129 113 153 164 30 65 33 78 35 161 3 98 -17 212 -48
272 -79 156 -260 240 -431 199z"/>
<path d="M4384 2880 c-111 -23 -216 -109 -267 -218 -28 -60 -31 -77 -31 -157
0 -72 5 -101 24 -145 13 -30 29 -60 35 -66 5 -7 33 -41 60 -77 92 -120 206
-174 345 -164 295 20 455 352 288 594 -80 117 -124 160 -202 198 -78 38 -174
52 -252 35z"/>
</g>
</svg>
